<?xml version="1.0" standalone="no"?>
<!DOCTYPE svg PUBLIC "-//W3C//DTD SVG 20010904//EN"
 "http://www.w3.org/TR/2001/REC-SVG-20010904/DTD/svg10.dtd">
<svg version="1.0" xmlns="http://www.w3.org/2000/svg"
 width="1592.000000pt" height="1592.000000pt" viewBox="0 0 1592.000000 1592.000000"
 preserveAspectRatio="xMidYMid meet">
<metadata>
Created by potrace 1.14, written by Peter Selinger 2001-2017
</metadata>
<g transform="translate(0.000000,1592.000000) scale(0.100000,-0.100000)"
fill="#000000" stroke="none">
<path d="M1104 13777 c-127 -48 -219 -119 -259 -197 -49 -96 -68 -214 -49
-300 6 -31 14 -69 18 -95 2 -11 11 -58 20 -105 8 -47 18 -101 21 -120 3 -19 8
-42 10 -50 2 -8 7 -33 10 -55 6 -43 8 -58 25 -140 5 -27 12 -63 14 -80 5 -30
42 -238 50 -285 3 -14 10 -52 15 -85 6 -33 13 -71 16 -85 3 -14 8 -41 11 -60
3 -19 21 -120 40 -224 19 -103 33 -190 30 -193 -2 -3 2 -19 9 -36 7 -18 13
-36 14 -42 1 -11 11 -87 16 -124 2 -13 7 -26 9 -29 3 -3 0 -12 -7 -20 -7 -9
-7 -13 -1 -9 12 7 41 -139 30 -150 -3 -4 -1 -12 5 -19 5 -7 12 -23 14 -36 2
-12 11 -63 20 -113 9 -49 20 -112 25 -140 4 -27 11 -61 14 -75 3 -14 8 -41 11
-60 3 -19 8 -53 12 -75 4 -22 7 -52 7 -67 1 -14 5 -24 10 -21 5 3 6 0 4 -8 -3
-8 -1 -22 4 -31 5 -11 5 -18 -1 -18 -5 0 -4 -12 4 -27 11 -21 12 -30 2 -42 -9
-12 -9 -13 1 -7 8 5 12 1 13 -11 1 -10 3 -31 4 -48 1 -16 8 -43 14 -59 7 -16
10 -35 7 -43 -3 -7 -2 -13 3 -13 8 0 10 -12 14 -79 1 -16 4 -27 7 -25 6 7 43
-150 56 -241 1 -11 3 -21 4 -22 3 -4 4 -6 18 -73 7 -30 15 -66 18 -80 3 -14
12 -56 20 -95 8 -38 17 -79 19 -90 3 -11 7 -29 9 -40 2 -11 9 -39 15 -62 6
-23 13 -59 15 -80 3 -21 5 -38 6 -38 3 0 11 -38 13 -60 1 -11 5 -22 9 -25 4
-3 10 -25 13 -48 4 -33 2 -42 -8 -37 -6 4 -4 0 7 -9 10 -8 15 -19 12 -25 -4
-5 -2 -12 3 -16 5 -3 8 -14 6 -24 -2 -11 3 -22 11 -25 9 -3 12 -10 9 -16 -4
-6 -11 -7 -17 -4 -7 4 -8 2 -4 -4 4 -6 13 -9 21 -5 9 3 15 -1 15 -11 0 -9 5
-16 10 -16 6 0 10 -4 10 -10 0 -11 21 -38 60 -78 14 -15 24 -30 23 -34 -2 -4
0 -7 5 -5 4 1 8 -3 9 -8 1 -6 -6 -9 -15 -7 -14 2 -15 1 -3 -7 10 -6 21 -6 32
0 16 8 18 5 14 -21 -2 -16 1 -30 6 -30 6 0 7 9 4 20 -5 14 -2 20 10 20 9 0 13
-4 10 -10 -3 -5 3 -10 14 -10 12 0 21 -4 21 -10 0 -5 9 -10 20 -10 21 0 60
-19 71 -33 3 -5 10 -8 15 -7 19 3 14 -18 -6 -23 -15 -4 -20 0 -21 16 -1 19 -2
19 -6 3 -7 -25 8 -36 36 -25 15 6 21 14 17 24 -3 9 0 15 9 15 9 0 12 -6 9 -17
-5 -16 -4 -16 5 -1 7 10 24 16 47 16 25 0 33 -3 23 -9 -8 -5 -9 -9 -3 -9 5 0
14 4 20 9 5 5 29 12 54 14 25 3 56 9 70 13 21 6 23 5 15 -7 -8 -11 -6 -11 5 1
19 18 80 53 80 46 0 -6 14 6 88 77 61 58 98 136 119 247 7 38 7 141 0 175 -4
17 -25 111 -48 210 -22 99 -42 189 -45 200 -4 23 -23 108 -53 245 -12 52 -31
138 -42 190 -11 52 -22 102 -24 110 -11 45 -38 165 -52 234 -16 76 -14 117 10
211 6 25 54 114 73 136 8 8 14 21 14 27 0 7 7 12 15 12 8 0 14 6 13 13 -2 6 3
11 10 9 8 -1 11 1 8 6 -9 15 74 76 132 96 60 21 138 28 154 13 7 -6 22 -13 32
-15 21 -4 51 -30 51 -45 0 -6 8 -11 17 -13 23 -3 69 -55 63 -71 -2 -7 1 -12 7
-10 7 1 17 -8 23 -20 5 -13 13 -23 17 -23 5 0 8 -7 8 -16 0 -9 -5 -12 -12 -8
-8 4 -10 3 -5 -2 5 -5 14 -9 20 -9 7 0 19 -13 27 -30 9 -16 20 -37 25 -45 5
-8 10 -17 10 -20 0 -3 15 -35 33 -73 18 -37 30 -72 26 -79 -4 -6 -3 -8 4 -5 6
4 16 -11 25 -38 9 -25 13 -45 9 -45 -4 0 -1 -4 6 -9 7 -4 14 -14 16 -22 1 -8
10 -31 19 -51 8 -20 17 -47 19 -60 2 -13 7 -26 12 -29 4 -4 9 -21 10 -38 0
-17 4 -31 7 -31 4 0 10 -15 14 -32 4 -18 9 -40 11 -48 3 -8 5 -29 7 -46 1 -18
5 -30 8 -28 7 4 33 -156 34 -203 0 -18 2 -33 6 -33 3 0 5 -10 5 -22 1 -13 4
-72 9 -133 5 -60 9 -126 9 -147 1 -20 4 -34 9 -31 4 2 7 -2 8 -9 1 -30 10 -61
24 -87 8 -16 11 -31 8 -35 -4 -3 -2 -6 4 -6 6 0 16 -15 24 -32 7 -18 19 -37
26 -41 7 -4 13 -13 13 -19 0 -9 -3 -9 -12 0 -7 7 -16 12 -22 12 -5 0 -1 -6 9
-14 11 -8 23 -13 26 -10 3 2 23 -12 44 -31 21 -19 41 -35 45 -35 12 0 37 -44
33 -57 -2 -7 -11 -9 -19 -6 -8 3 -14 1 -14 -5 0 -15 30 -8 40 8 5 9 5 20 -2
27 -8 10 -6 13 5 13 21 0 26 -21 11 -46 -12 -17 -12 -23 0 -39 10 -14 15 -15
21 -5 5 8 4 11 -2 7 -17 -11 -23 19 -8 41 8 10 12 22 9 25 -3 3 4 3 16 0 12
-3 24 -12 27 -19 2 -7 10 -11 17 -8 7 3 24 0 39 -5 16 -7 28 -7 32 -1 4 6 17
2 33 -8 14 -9 23 -11 19 -4 -6 8 -1 12 15 13 51 1 113 12 141 24 9 4 24 4 33
1 8 -3 13 -2 9 3 -5 9 83 48 98 43 5 -1 6 1 3 6 -2 4 24 34 59 66 74 67 91 99
110 204 13 75 14 430 1 542 -3 25 -8 65 -11 90 -32 289 -119 613 -248 927
-193 470 -465 771 -817 906 -111 43 -178 52 -360 52 -123 -1 -169 -4 -270 -21
-90 -15 -216 -60 -334 -119 -71 -36 -131 -63 -133 -61 -4 3 -22 101 -27 141
-1 11 -5 34 -9 50 -3 17 -9 48 -12 70 -3 22 -9 63 -15 90 -8 46 -15 84 -26
160 -3 17 -9 50 -14 75 -5 25 -12 68 -16 95 -4 28 -8 55 -10 60 -3 15 -23 125
-29 165 -3 19 -10 60 -15 90 -5 30 -12 72 -14 92 -2 20 -7 45 -10 55 -2 10 -7
36 -11 58 -30 204 -59 347 -81 392 -41 85 -153 196 -241 240 -70 34 -81 37
-181 40 -93 3 -115 0 -168 -20z"/>
<path d="M4280 13645 c-141 -40 -254 -113 -341 -221 -55 -69 -65 -86 -93 -156
-52 -131 -31 -318 49 -443 105 -164 297 -273 457 -260 15 1 28 -2 28 -8 0 -7
4 -7 12 1 7 7 21 12 32 12 25 0 80 20 121 43 101 56 188 192 248 382 77 246
52 390 -93 536 -31 32 -84 71 -119 89 -55 27 -77 32 -155 36 -63 3 -108 -1
-146 -11z"/>
<path d="M4382 12479 c-141 -39 -221 -123 -286 -299 -44 -121 -49 -169 -26
-285 12 -55 23 -113 26 -130 3 -16 7 -31 9 -34 3 -2 -1 -11 -8 -19 -9 -13 -9
-14 1 -8 8 5 12 -1 13 -18 1 -14 2 -29 4 -33 13 -50 24 -112 29 -164 2 -14 5
-30 8 -35 8 -14 32 -154 32 -191 0 -17 4 -30 7 -27 6 3 16 -45 25 -111 0 -5 4
-21 7 -35 4 -14 9 -37 11 -52 3 -15 8 -33 12 -39 5 -8 3 -9 -7 -4 -12 7 -12 6
-1 -7 7 -8 13 -34 15 -57 1 -22 4 -41 7 -41 6 0 11 -33 14 -82 0 -16 4 -28 8
-28 5 0 8 -12 8 -27 0 -16 4 -44 9 -63 6 -19 12 -48 15 -65 2 -16 11 -66 20
-110 8 -44 18 -96 21 -115 3 -19 10 -52 16 -74 6 -21 8 -41 5 -44 -3 -3 -2
-10 3 -16 5 -6 11 -34 13 -61 2 -28 6 -52 9 -55 7 -5 13 -39 26 -129 5 -35 3
-42 -7 -36 -9 5 -11 4 -6 -4 4 -6 11 -9 16 -6 5 3 11 -9 15 -26 5 -20 3 -34
-5 -39 -8 -5 -7 -9 5 -14 9 -3 14 -10 10 -15 -3 -5 -1 -12 4 -16 5 -3 10 -13
11 -23 2 -48 5 -70 9 -66 8 8 51 -78 44 -89 -3 -6 -1 -7 5 -3 13 8 35 -28 24
-39 -4 -5 -2 -5 4 -2 6 3 22 -5 37 -19 32 -30 135 -84 159 -84 9 0 22 -9 28
-21 7 -13 16 -17 23 -12 11 8 25 9 52 3 6 -1 1 -5 -10 -10 -18 -8 -18 -9 -2
-9 10 -1 20 5 22 12 4 9 27 11 85 7 44 -3 80 -2 80 1 0 3 6 6 13 7 99 6 239
115 290 225 45 97 66 247 47 332 -9 42 -11 49 -30 155 -6 36 -22 119 -35 185
-13 66 -26 131 -29 145 -2 14 -12 66 -21 115 -10 50 -19 101 -22 115 -2 14
-18 95 -34 180 -36 186 -69 356 -75 390 -2 14 -9 45 -14 70 -5 25 -19 97 -31
160 -11 63 -31 169 -44 235 -31 155 -34 173 -41 215 -3 19 -7 43 -10 52 -3 10
-7 30 -10 44 -6 35 -57 134 -82 159 -56 59 -206 165 -232 165 -6 0 -25 7 -42
16 -44 23 -169 24 -246 3z"/>
<path d="M9778 12385 c-2 -1 -48 -5 -104 -9 -405 -24 -846 -141 -1196 -317
-264 -132 -457 -270 -688 -494 -84 -81 -117 -106 -165 -125 -202 -80 -442
-293 -582 -515 -127 -201 -195 -476 -196 -790 -1 -152 6 -305 17 -390 2 -16 7
-61 11 -100 3 -38 8 -81 10 -95 2 -14 6 -52 10 -85 3 -33 8 -72 11 -87 3 -22
-1 -30 -24 -42 -38 -20 -98 -87 -116 -131 -13 -29 -19 -35 -38 -31 -52 12
-143 26 -164 26 -28 0 -63 -47 -75 -98 -10 -44 4 -112 25 -128 9 -6 55 -18
103 -28 48 -9 88 -18 90 -19 1 -1 -2 -34 -7 -72 -15 -119 -23 -222 -35 -419
-8 -120 -7 -479 0 -521 9 -50 36 -118 62 -152 22 -31 24 -42 28 -219 3 -102 7
-190 10 -194 3 -5 -22 -60 -55 -122 -33 -62 -65 -124 -71 -138 -5 -13 -25 -57
-44 -96 -79 -167 -151 -360 -190 -513 -33 -129 -37 -167 -21 -206 17 -41 40
-54 89 -50 30 1 36 -1 33 -14 -21 -72 -41 -313 -41 -501 0 -177 5 -233 30
-320 25 -85 69 -109 134 -75 32 16 31 19 46 -90 11 -69 57 -237 86 -313 55
-139 116 -250 199 -359 21 -28 27 -43 18 -43 -26 0 -173 -77 -234 -123 -33
-25 -124 -112 -201 -194 -78 -81 -167 -175 -198 -208 -259 -272 -483 -503
-734 -756 l-293 -298 -85 127 c-115 170 -446 627 -565 777 -4 6 -18 24 -31 40
-13 17 -76 101 -139 187 l-115 158 81 163 c97 197 112 230 142 327 38 126 56
230 56 335 -1 117 11 190 43 262 30 67 123 208 172 258 88 92 107 148 73 222
-82 184 -311 154 -533 -70 -56 -57 -77 -88 -123 -185 -38 -79 -71 -131 -99
-159 -24 -24 -47 -43 -52 -43 -24 0 -118 196 -166 345 -43 134 -110 425 -122
525 -3 25 -7 65 -10 90 -3 25 -8 65 -11 90 -10 87 -36 214 -50 249 -42 101
-162 146 -286 109 -49 -14 -103 -74 -119 -130 -23 -81 -16 -284 17 -488 8 -52
17 -111 20 -130 3 -19 12 -78 20 -130 8 -52 17 -108 19 -125 3 -16 7 -55 10
-85 l6 -55 -25 30 c-42 50 -147 210 -254 386 -214 356 -286 445 -375 467 -51
13 -85 9 -140 -19 -96 -49 -140 -137 -119 -237 14 -65 78 -195 163 -330 34
-53 93 -149 131 -212 37 -63 73 -122 78 -130 42 -69 108 -180 106 -180 -1 0
-148 103 -327 230 -196 139 -340 234 -364 241 -161 45 -325 -163 -237 -300 28
-44 190 -190 362 -326 41 -33 84 -68 95 -77 11 -9 60 -48 109 -87 49 -39 87
-71 85 -71 -2 0 -60 18 -129 40 -513 165 -539 169 -623 88 -47 -45 -59 -72
-60 -132 -2 -130 62 -181 388 -311 66 -26 125 -51 130 -54 6 -4 33 -16 60 -26
87 -32 244 -115 261 -138 8 -12 61 -92 117 -177 72 -110 126 -180 187 -241 86
-86 219 -181 315 -225 29 -14 58 -30 63 -37 9 -11 55 -174 67 -235 2 -12 6
-25 8 -30 3 -4 8 -23 11 -42 3 -19 15 -73 26 -120 21 -90 59 -258 66 -300 3
-14 10 -45 15 -70 16 -68 16 -69 34 -155 8 -44 24 -116 35 -160 10 -44 21 -91
24 -105 24 -129 121 -460 176 -605 21 -55 55 -145 75 -200 44 -122 53 -141
122 -280 56 -113 142 -257 155 -263 5 -2 8 -8 8 -13 0 -21 164 -222 272 -332
31 -32 73 -84 92 -115 88 -144 241 -263 406 -313 64 -20 95 -23 210 -22 145 2
244 21 345 67 l52 24 -42 -122 c-24 -66 -45 -128 -48 -136 -3 -8 -10 -31 -16
-50 -5 -19 -21 -70 -35 -113 l-24 -77 3856 2 3857 3 1 25 c1 14 4 69 8 124 3
54 7 100 8 101 2 1 75 46 163 99 88 54 170 108 183 120 29 29 30 58 3 168 -11
48 -22 98 -25 110 -2 13 -20 86 -40 163 -20 78 -38 150 -41 160 -17 77 -148
540 -201 713 -19 62 -37 120 -39 130 -13 64 -304 935 -384 1149 -91 245 -234
423 -426 528 -27 16 -62 36 -77 46 -14 11 -32 19 -40 19 -8 0 -18 4 -23 9 -18
16 -685 291 -860 354 -22 8 -166 61 -319 117 l-280 103 -42 -16 c-35 -13 -49
-13 -73 -4 -27 10 -31 16 -31 49 0 28 7 44 27 62 l27 25 47 -44 c56 -52 73
-52 186 0 150 69 288 197 395 365 51 79 130 234 162 315 39 98 85 253 77 261
-3 4 0 5 7 3 8 -3 21 -18 30 -34 38 -67 99 -85 140 -43 44 48 134 258 168 393
38 152 51 269 50 443 l-1 144 35 -7 c74 -14 255 -13 325 2 129 27 272 99 365
183 19 17 62 55 95 83 121 105 279 264 340 342 242 311 369 725 311 1014 -27
132 -72 215 -171 317 -49 50 -53 57 -40 71 9 8 50 67 91 130 119 179 204 372
283 643 33 111 91 378 91 420 l1 25 18 -22 c36 -43 47 -32 58 58 29 245 -15
469 -139 712 -62 121 -135 218 -242 322 -78 75 -86 87 -129 190 -240 569 -691
1024 -1306 1318 -595 284 -1248 424 -1983 425 -119 0 -218 -1 -220 -3z"/>
<path d="M2635 11131 c-3 -5 -2 -12 3 -15 5 -3 9 1 9 9 0 17 -3 19 -12 6z"/>
<path d="M2457 11115 c-4 -8 -3 -16 1 -19 4 -3 9 4 9 15 2 23 -3 25 -10 4z"/>
<path d="M2610 11080 c0 -5 5 -10 11 -10 5 0 7 5 4 10 -3 6 -8 10 -11 10 -2 0
-4 -4 -4 -10z"/>
<path d="M2674 11062 c4 -3 14 -7 22 -8 9 -1 13 0 10 4 -4 3 -14 7 -22 8 -9 1
-13 0 -10 -4z"/>
<path d="M2736 11062 c-3 -4 4 -9 15 -9 23 -2 25 3 4 10 -8 4 -16 3 -19 -1z"/>
<path d="M2736 11018 c3 -4 11 -5 19 -1 21 7 19 12 -4 10 -11 0 -18 -5 -15 -9z"/>
<path d="M2810 10980 c0 -5 5 -10 11 -10 5 0 7 5 4 10 -3 6 -8 10 -11 10 -2 0
-4 -4 -4 -10z"/>
<path d="M2816 10942 c-3 -5 1 -9 9 -9 8 0 12 4 9 9 -3 4 -7 8 -9 8 -2 0 -6
-4 -9 -8z"/>
<path d="M2856 10858 c3 -4 11 -5 19 -1 21 7 19 12 -4 10 -11 0 -18 -5 -15 -9z"/>
<path d="M2899 10848 c-5 -18 -6 -38 -1 -34 7 8 12 36 6 36 -2 0 -4 -1 -5 -2z"/>
<path d="M2835 10801 c-3 -5 -2 -12 3 -15 5 -3 9 1 9 9 0 17 -3 19 -12 6z"/>
<path d="M2920 10700 c-12 -7 -10 -9 7 -7 12 0 19 5 17 9 -6 10 -6 10 -24 -2z"/>
<path d="M2956 10682 c-3 -5 1 -9 9 -9 8 0 12 4 9 9 -3 4 -7 8 -9 8 -2 0 -6
-4 -9 -8z"/>
<path d="M2976 10558 c3 -5 10 -6 15 -3 13 9 11 12 -6 12 -8 0 -12 -4 -9 -9z"/>
<path d="M3055 10500 c-3 -5 -1 -10 4 -10 6 0 11 5 11 10 0 6 -2 10 -4 10 -3
0 -8 -4 -11 -10z"/>
<path d="M3053 10465 c0 -8 4 -12 9 -9 5 3 6 10 3 15 -9 13 -12 11 -12 -6z"/>
<path d="M3110 10321 c0 -6 4 -13 10 -16 6 -3 7 1 4 9 -7 18 -14 21 -14 7z"/>
<path d="M3116 10193 c-6 -14 -5 -15 5 -6 7 7 10 15 7 18 -3 3 -9 -2 -12 -12z"/>
<path d="M4370 10179 c0 -5 5 -7 10 -4 6 3 10 8 10 11 0 2 -4 4 -10 4 -5 0
-10 -5 -10 -11z"/>
<path d="M1355 10121 c-3 -5 -2 -12 3 -15 5 -3 9 1 9 9 0 17 -3 19 -12 6z"/>
<path d="M1347 9999 c7 -7 15 -10 18 -7 3 3 -2 9 -12 12 -14 6 -15 5 -6 -5z"/>
<path d="M1406 9798 c3 -5 10 -6 15 -3 13 9 11 12 -6 12 -8 0 -12 -4 -9 -9z"/>
<path d="M4520 9620 c-9 -6 -10 -10 -3 -10 6 0 15 5 18 10 8 12 4 12 -15 0z"/>
<path d="M4550 9626 c0 -2 7 -7 16 -10 8 -3 12 -2 9 4 -6 10 -25 14 -25 6z"/>
<path d="M4590 9601 c0 -6 4 -13 10 -16 6 -3 7 1 4 9 -7 18 -14 21 -14 7z"/>
<path d="M4566 9582 c-3 -5 1 -9 9 -9 8 0 12 4 9 9 -3 4 -7 8 -9 8 -2 0 -6 -4
-9 -8z"/>
<path d="M4619 9583 c0 -5 -2 -16 -4 -25 -2 -10 2 -21 7 -25 7 -4 8 -1 3 7 -6
10 -4 12 9 7 10 -4 20 -7 22 -7 3 0 2 -5 -2 -12 -5 -7 -3 -8 6 -3 10 6 10 11
-3 20 -9 7 -14 15 -10 19 4 4 0 4 -10 0 -13 -5 -16 -2 -11 10 3 9 3 16 0 16
-3 0 -6 -3 -7 -7z"/>
<path d="M4475 9560 c-3 -5 -1 -10 4 -10 6 0 11 5 11 10 0 6 -2 10 -4 10 -3 0
-8 -4 -11 -10z"/>
<path d="M4676 9547 c3 -10 9 -15 12 -12 3 3 0 11 -7 18 -10 9 -11 8 -5 -6z"/>
<path d="M4699 9530 c-5 -29 -2 -33 21 -37 18 -2 21 -1 10 6 -8 5 -18 7 -23 4
-5 -3 -6 4 -2 16 3 11 4 21 1 21 -3 0 -7 -4 -7 -10z"/>
<path d="M4580 9521 c0 -4 10 -12 23 -20 19 -13 21 -12 10 1 -7 8 -11 17 -8
20 3 2 -2 5 -10 5 -8 0 -15 -3 -15 -6z"/>
<path d="M4735 9520 c-3 -5 -2 -10 4 -10 5 0 13 5 16 10 3 6 2 10 -4 10 -5 0
-13 -4 -16 -10z"/>
<path d="M4635 9501 c-3 -5 -2 -12 3 -15 5 -3 9 1 9 9 0 17 -3 19 -12 6z"/>
<path d="M4756 9502 c-3 -5 1 -9 9 -9 8 0 12 4 9 9 -3 4 -7 8 -9 8 -2 0 -6 -4
-9 -8z"/>
<path d="M5060 9500 c-8 -5 -10 -10 -5 -10 6 0 17 5 25 10 8 5 11 10 5 10 -5
0 -17 -5 -25 -10z"/>
<path d="M4585 9480 c10 -11 20 -20 23 -20 3 0 -3 9 -13 20 -10 11 -20 20 -23
20 -3 0 3 -9 13 -20z"/>
<path d="M4814 9475 c1 -15 7 -19 26 -17 22 4 23 2 10 -15 -14 -16 -14 -17 2
-4 21 16 13 35 -13 28 -11 -3 -19 1 -22 12 -3 10 -4 9 -3 -4z"/>
<path d="M4875 9489 c-4 -6 -5 -12 -2 -15 2 -3 7 2 10 11 7 17 1 20 -8 4z"/>
<path d="M4896 9485 c-3 -8 -1 -15 4 -15 6 0 10 7 10 15 0 8 -2 15 -4 15 -2 0
-6 -7 -10 -15z"/>
<path d="M4930 9485 c0 -8 4 -15 10 -15 5 0 7 7 4 15 -4 8 -8 15 -10 15 -2 0
-4 -7 -4 -15z"/>
<path d="M4958 9493 c7 -3 16 -2 19 1 4 3 -2 6 -13 5 -11 0 -14 -3 -6 -6z"/>
<path d="M4687 9479 c7 -7 15 -10 18 -7 3 3 -2 9 -12 12 -14 6 -15 5 -6 -5z"/>
<path d="M4793 9440 c0 -16 4 -30 8 -30 8 0 5 47 -3 55 -3 3 -5 -8 -5 -25z"/>
<path d="M4751 9444 c0 -11 3 -14 6 -6 3 7 2 16 -1 19 -3 4 -6 -2 -5 -13z"/>
<path d="M4918 9453 c7 -3 16 -2 19 1 4 3 -2 6 -13 5 -11 0 -14 -3 -6 -6z"/>
<path d="M4710 9430 c-11 -7 -11 -10 -2 -10 8 0 10 -5 6 -12 -4 -7 -3 -9 1 -5
7 6 17 37 12 37 -1 0 -9 -5 -17 -10z"/>
<path d="M3255 9420 c-3 -5 -1 -10 4 -10 6 0 11 5 11 10 0 6 -2 10 -4 10 -3 0
-8 -4 -11 -10z"/>
<path d="M4559 9413 c-13 -17 -13 -17 6 -3 11 8 22 16 24 17 2 2 0 3 -6 3 -6
0 -17 -8 -24 -17z"/>
<path d="M4868 9413 c7 -3 16 -2 19 1 4 3 -2 6 -13 5 -11 0 -14 -3 -6 -6z"/>
<path d="M1490 9400 c0 -5 5 -10 11 -10 5 0 7 5 4 10 -3 6 -8 10 -11 10 -2 0
-4 -4 -4 -10z"/>
<path d="M4816 9402 c-3 -4 4 -9 15 -9 23 -2 25 3 4 10 -8 4 -16 3 -19 -1z"/>
<path d="M4973 9385 c0 -8 4 -12 9 -9 5 3 6 10 3 15 -9 13 -12 11 -12 -6z"/>
<path d="M3256 9382 c-3 -4 4 -9 15 -9 23 -2 25 3 4 10 -8 4 -16 3 -19 -1z"/>
<path d="M3306 9380 c6 -8 10 -22 9 -31 -2 -9 3 -16 11 -16 9 0 11 4 4 12 -5
7 -8 14 -5 17 3 3 -3 11 -12 19 -16 12 -17 12 -7 -1z"/>
<path d="M4650 9379 c0 -5 5 -7 10 -4 6 3 10 8 10 11 0 2 -4 4 -10 4 -5 0 -10
-5 -10 -11z"/>
<path d="M4746 9378 c3 -4 9 -8 15 -8 5 0 9 4 9 8 0 5 -7 9 -15 9 -8 0 -12 -4
-9 -9z"/>
<path d="M3341 9364 c0 -11 3 -14 6 -6 3 7 2 16 -1 19 -3 4 -6 -2 -5 -13z"/>
<path d="M4813 9365 c0 -8 4 -12 9 -9 5 3 6 10 3 15 -9 13 -12 11 -12 -6z"/>
<path d="M4849 9363 c-13 -16 -12 -17 4 -4 9 7 17 15 17 17 0 8 -8 3 -21 -13z"/>
<path d="M3367 9359 c7 -7 15 -10 18 -7 3 3 -2 9 -12 12 -14 6 -15 5 -6 -5z"/>
<path d="M3246 9338 c3 -5 10 -6 15 -3 13 9 11 12 -6 12 -8 0 -12 -4 -9 -9z"/>
<path d="M4876 9338 c3 -4 11 -5 19 -1 21 7 19 12 -4 10 -11 0 -18 -5 -15 -9z"/>
<path d="M3347 9323 c-3 -5 6 -9 20 -10 19 -1 22 1 12 8 -17 11 -26 11 -32 2z"/>
<path d="M4920 9326 c0 -2 8 -10 18 -17 15 -13 16 -12 3 4 -13 16 -21 21 -21
13z"/>
<path d="M3430 9301 c0 -6 4 -13 10 -16 6 -3 7 1 4 9 -7 18 -14 21 -14 7z"/>
<path d="M3329 9283 c-13 -16 -12 -17 4 -4 9 7 17 15 17 17 0 8 -8 3 -21 -13z"/>
<path d="M3390 9296 c0 -2 7 -9 15 -16 9 -7 15 -8 15 -2 0 5 -7 12 -15 16 -8
3 -15 4 -15 2z"/>
<path d="M3354 9269 c-3 -6 -2 -15 3 -20 5 -5 9 -1 9 11 0 23 -2 24 -12 9z"/>
<path d="M3515 9270 c-3 -5 -1 -10 4 -10 6 0 11 5 11 10 0 6 -2 10 -4 10 -3 0
-8 -4 -11 -10z"/>
<path d="M3895 9269 c-4 -6 -5 -12 -2 -15 2 -3 7 2 10 11 7 17 1 20 -8 4z"/>
<path d="M3290 9259 c0 -5 5 -7 10 -4 6 3 10 8 10 11 0 2 -4 4 -10 4 -5 0 -10
-5 -10 -11z"/>
<path d="M3410 9251 c0 -6 4 -13 10 -16 6 -3 7 1 4 9 -7 18 -14 21 -14 7z"/>
<path d="M3782 9256 c2 0 12 -9 23 -18 20 -16 21 -16 21 0 0 11 -9 18 -24 19
-13 0 -22 0 -20 -1z"/>
<path d="M3386 9236 c3 -8 13 -17 22 -21 13 -5 13 -2 -3 15 -21 24 -26 25 -19
6z"/>
<path d="M3500 9245 c0 -8 29 -12 39 -5 9 5 4 8 -13 8 -14 0 -26 -2 -26 -3z"/>
<path d="M3590 9243 c0 -5 5 -15 10 -23 7 -12 9 -10 7 8 -1 19 -17 33 -17 15z"/>
<path d="M3630 9240 c-13 -8 -12 -10 3 -10 9 0 17 5 17 10 0 12 -1 12 -20 0z"/>
<path d="M3730 9235 c0 -8 2 -15 4 -15 2 0 6 7 10 15 3 8 1 15 -4 15 -6 0 -10
-7 -10 -15z"/>
<path d="M3441 9233 c-1 -17 16 -25 25 -12 4 7 3 9 -4 5 -5 -3 -13 0 -15 6 -4
9 -6 10 -6 1z"/>
<path d="M3755 9229 c-4 -6 -5 -12 -2 -15 2 -3 7 2 10 11 7 17 1 20 -8 4z"/>
<path d="M3910 9236 c0 -2 8 -10 18 -17 15 -13 16 -12 3 4 -13 16 -21 21 -21
13z"/>
<path d="M1536 9218 c3 -5 10 -6 15 -3 13 9 11 12 -6 12 -8 0 -12 -4 -9 -9z"/>
<path d="M3336 9221 c8 -8 43 -8 38 0 -2 4 -13 7 -24 6 -10 -1 -17 -3 -14 -6z"/>
<path d="M3539 9227 c-6 -20 -5 -37 3 -37 6 0 7 7 4 15 -8 21 26 16 36 -5 6
-11 7 -10 5 4 -1 11 -11 20 -24 22 -13 2 -23 3 -24 1z"/>
<path d="M3659 9227 c-7 -21 -4 -34 7 -34 11 0 11 3 2 15 -10 11 -8 13 8 10
10 -1 24 -9 30 -17 9 -11 12 -12 19 -1 5 8 4 11 -3 6 -5 -3 -12 -1 -14 6 -3 9
-46 23 -49 15z"/>
<path d="M3786 9217 c3 -10 9 -15 12 -12 3 3 0 11 -7 18 -10 9 -11 8 -5 -6z"/>
<path d="M3430 9200 c0 -5 5 -10 11 -10 5 0 7 5 4 10 -3 6 -8 10 -11 10 -2 0
-4 -4 -4 -10z"/>
<path d="M3615 9199 c-11 -16 -1 -19 13 -3 7 8 8 14 3 14 -5 0 -13 -5 -16 -11z"/>
<path d="M3476 9182 c-2 -4 0 -14 6 -22 8 -12 9 -12 5 2 -3 9 -1 19 6 22 9 3
9 5 0 5 -6 1 -14 -3 -17 -7z"/>
<path d="M3552 9181 c-11 -7 -11 -9 0 -14 9 -3 15 1 15 9 0 8 -1 14 -1 14 -1
0 -7 -4 -14 -9z"/>
<path d="M3630 9180 c0 -5 5 -10 11 -10 5 0 7 5 4 10 -3 6 -8 10 -11 10 -2 0
-4 -4 -4 -10z"/>
<path d="M3450 9161 c0 -6 4 -13 10 -16 6 -3 7 1 4 9 -7 18 -14 21 -14 7z"/>
<path d="M3603 9158 c-11 -19 -12 -37 -3 -43 5 -3 7 3 5 12 -1 10 2 24 8 31 5
6 7 12 4 12 -3 0 -9 -6 -14 -12z"/>
<path d="M3514 9149 c-3 -6 -2 -15 3 -20 5 -5 9 -1 9 11 0 23 -2 24 -12 9z"/>
<path d="M3410 9146 c0 -2 7 -7 16 -10 8 -3 12 -2 9 4 -6 10 -25 14 -25 6z"/>
<path d="M3560 9140 c-9 -6 -10 -10 -3 -10 6 0 15 5 18 10 8 12 4 12 -15 0z"/>
<path d="M3439 9113 c-13 -16 -12 -17 4 -4 9 7 17 15 17 17 0 8 -8 3 -21 -13z"/>
<path d="M3686 9118 c3 -5 10 -6 15 -3 13 9 11 12 -6 12 -8 0 -12 -4 -9 -9z"/>
<path d="M1575 9100 c3 -5 8 -10 11 -10 2 0 4 5 4 10 0 6 -5 10 -11 10 -5 0
-7 -4 -4 -10z"/>
<path d="M3655 9100 c3 -5 8 -10 11 -10 2 0 4 5 4 10 0 6 -5 10 -11 10 -5 0
-7 -4 -4 -10z"/>
<path d="M1575 9060 c3 -5 8 -10 11 -10 2 0 4 5 4 10 0 6 -5 10 -11 10 -5 0
-7 -4 -4 -10z"/>
<path d="M1574 9016 c1 -8 5 -18 8 -22 4 -3 5 1 4 10 -1 8 -5 18 -8 22 -4 3
-5 -1 -4 -10z"/>
<path d="M1676 9018 c5 -7 2 -9 -8 -6 -8 4 -15 0 -15 -7 0 -11 5 -11 21 -3 29
15 29 15 11 22 -11 4 -14 2 -9 -6z"/>
<path d="M1665 8980 c-3 -6 1 -7 9 -4 18 7 21 14 7 14 -6 0 -13 -4 -16 -10z"/>
<path d="M1636 8953 c-6 -14 -5 -15 5 -6 7 7 10 15 7 18 -3 3 -9 -2 -12 -12z"/>
<path d="M1690 8960 c0 -6 4 -9 9 -6 5 4 12 1 14 -4 3 -6 4 -5 3 2 -3 15 -26
23 -26 8z"/>
<path d="M1788 8923 c7 -3 16 -2 19 1 4 3 -2 6 -13 5 -11 0 -14 -3 -6 -6z"/>
<path d="M1755 8909 c-4 -6 -5 -12 -2 -15 2 -3 7 2 10 11 7 17 1 20 -8 4z"/>
<path d="M1836 8908 c3 -5 10 -6 15 -3 13 9 11 12 -6 12 -8 0 -12 -4 -9 -9z"/>
<path d="M1775 8901 c-10 -10 -4 -21 18 -31 20 -10 20 -10 5 3 -23 18 -23 22
2 24 13 1 18 -2 14 -9 -4 -7 -2 -8 5 -4 6 4 9 11 6 16 -5 9 -42 10 -50 1z"/>
<path d="M1690 8876 c7 -7 13 -7 20 0 6 6 3 10 -10 10 -13 0 -16 -4 -10 -10z"/>
<path d="M1835 8880 c-8 -13 4 -32 15 -25 4 3 11 -2 14 -11 9 -22 8 -26 -6
-18 -7 4 -8 3 -4 -4 10 -16 14 -15 27 9 6 12 7 19 1 15 -5 -3 -13 1 -16 10 -3
8 -10 12 -16 9 -5 -3 -10 -2 -10 4 0 5 6 12 13 14 9 4 9 6 0 6 -6 1 -15 -3
-18 -9z"/>
<path d="M1994 8881 c4 -5 1 -11 -6 -13 -6 -2 -13 -15 -15 -29 -2 -18 -1 -20
6 -9 5 8 8 17 5 21 -2 4 3 9 11 13 17 6 20 26 4 26 -5 0 -8 -4 -5 -9z"/>
<path d="M2070 8882 c0 -4 9 -8 20 -9 11 -1 20 2 20 5 0 4 -9 8 -20 9 -11 1
-20 -2 -20 -5z"/>
<path d="M2150 8870 c-9 -6 -10 -10 -3 -10 6 0 15 5 18 10 8 12 4 12 -15 0z"/>
<path d="M1750 8860 c0 -5 5 -10 10 -10 6 0 10 5 10 10 0 6 -4 10 -10 10 -5 0
-10 -4 -10 -10z"/>
<path d="M2015 8860 c-3 -5 -3 -10 2 -10 4 0 0 -5 -9 -11 -20 -11 -24 -29 -7
-29 5 0 7 5 3 12 -5 7 -2 9 8 5 11 -4 15 0 13 11 -1 10 7 20 19 24 21 6 21 6
-1 7 -12 1 -25 -3 -28 -9z"/>
<path d="M1635 8851 c-3 -5 -2 -12 3 -15 5 -3 9 1 9 9 0 17 -3 19 -12 6z"/>
<path d="M1951 8844 c0 -11 3 -14 6 -6 3 7 2 16 -1 19 -3 4 -6 -2 -5 -13z"/>
<path d="M2050 8839 c0 -5 5 -7 10 -4 6 3 10 8 10 11 0 2 -4 4 -10 4 -5 0 -10
-5 -10 -11z"/>
<path d="M1797 8829 c7 -7 15 -10 18 -7 3 3 -2 9 -12 12 -14 6 -15 5 -6 -5z"/>
<path d="M1910 8831 c0 -5 5 -13 10 -16 6 -3 10 -2 10 4 0 5 -4 13 -10 16 -5
3 -10 2 -10 -4z"/>
<path d="M1773 8805 c0 -8 4 -12 9 -9 5 3 6 10 3 15 -9 13 -12 11 -12 -6z"/>
<path d="M1937 8801 c-4 -17 -3 -21 5 -13 5 5 8 16 6 23 -3 8 -7 3 -11 -10z"/>
<path d="M2095 8809 c-4 -6 -5 -12 -2 -15 2 -3 7 2 10 11 7 17 1 20 -8 4z"/>
<path d="M1890 8806 c0 -2 7 -7 16 -10 8 -3 12 -2 9 4 -6 10 -25 14 -25 6z"/>
<path d="M1715 8779 c-3 -4 2 -6 10 -5 21 3 28 13 10 13 -9 0 -18 -4 -20 -8z"/>
<path d="M1873 8767 c-1 -11 -1 -18 0 -16 2 2 8 11 15 20 9 12 9 16 -1 16 -7
0 -14 -9 -14 -20z"/>
<path d="M2115 8780 c3 -5 8 -10 11 -10 2 0 4 5 4 10 0 6 -5 10 -11 10 -5 0
-7 -4 -4 -10z"/>
<path d="M1897 8755 c-4 -8 -3 -16 1 -19 4 -3 9 4 9 15 2 23 -3 25 -10 4z"/>
<path d="M1936 8758 c3 -5 10 -6 15 -3 13 9 11 12 -6 12 -8 0 -12 -4 -9 -9z"/>
<path d="M1815 8741 c-3 -5 -2 -12 3 -15 5 -3 9 1 9 9 0 17 -3 19 -12 6z"/>
<path d="M2015 8740 c3 -5 8 -10 11 -10 2 0 4 5 4 10 0 6 -5 10 -11 10 -5 0
-7 -4 -4 -10z"/>
</g>
</svg>
